<svg width="297" height="196" viewBox="0 0 297 196" fill="none" xmlns="http://www.w3.org/2000/svg">
<g clip-path="url(#clip0_2607_3953)">
<path d="M224.787 0H71.3711V27.8326H224.787V0Z" fill="#FF8602"/>
<path d="M209.513 63.3872H86.627V37.0185H141.657L209.513 52.9752V63.3872Z" fill="#34495E"/>
<path d="M125.396 72.5735H102.924V156.547H125.396V72.5735Z" fill="#00C3C0"/>
<path d="M159.306 156.547H136.834V72.5735L159.306 79.2526V156.547Z" fill="#00C3C0"/>
<path d="M193.235 156.547H170.744V82.3087L193.235 88.2192V156.547Z" fill="#00C3C0"/>
</g>
<path d="M296.161 173.829C296.161 175.71 295.702 177.371 294.784 178.814C293.909 180.214 292.729 181.285 291.242 182.028C289.799 182.772 288.268 183.143 286.651 183.143C284.945 183.143 283.327 182.706 281.797 181.831L281.928 181.241L283.043 181.307L284.158 181.241C285.863 180.979 287.197 180.214 288.159 178.945C289.121 177.634 289.602 175.906 289.602 173.764C289.602 171.359 289.056 169.347 287.962 167.729C286.913 166.068 285.448 165.237 283.568 165.237C282.562 165.237 281.819 165.521 281.338 166.089C280.9 166.658 280.682 167.292 280.682 167.992V186.292C280.682 188.041 280.813 189.418 281.075 190.424C281.381 191.43 281.906 192.435 282.649 193.441L283.174 194.228L282.649 194.884H271.236L270.777 193.704C271.914 193.397 272.701 193.113 273.139 192.851C273.62 192.588 273.948 192.217 274.123 191.736C274.297 191.255 274.385 190.49 274.385 189.44V171.993C274.385 170.462 274.254 169.303 273.991 168.516C273.773 167.686 273.226 167.008 272.352 166.483L271.564 166.024L271.827 165.171C273.095 164.778 274.735 164.428 276.746 164.122C278.801 163.816 280.747 163.663 282.584 163.663C287.044 163.663 290.411 164.603 292.685 166.483C295.003 168.32 296.161 170.768 296.161 173.829Z" fill="black"/>
<path d="M268.489 173.829C268.489 175.71 268.03 177.371 267.112 178.814C266.237 180.214 265.057 181.285 263.57 182.028C262.127 182.772 260.597 183.143 258.979 183.143C257.273 183.143 255.655 182.706 254.125 181.831L254.256 181.241L255.371 181.307L256.486 181.241C258.192 180.979 259.525 180.214 260.487 178.945C261.449 177.634 261.93 175.906 261.93 173.764C261.93 171.359 261.384 169.347 260.29 167.729C259.241 166.068 257.776 165.237 255.896 165.237C254.89 165.237 254.147 165.521 253.666 166.089C253.228 166.658 253.01 167.292 253.01 167.992V186.292C253.01 188.041 253.141 189.418 253.403 190.424C253.709 191.43 254.234 192.435 254.978 193.441L255.502 194.228L254.978 194.884H243.565L243.105 193.704C244.242 193.397 245.029 193.113 245.467 192.851C245.948 192.588 246.276 192.217 246.451 191.736C246.626 191.255 246.713 190.49 246.713 189.44V171.993C246.713 170.462 246.582 169.303 246.319 168.516C246.101 167.686 245.554 167.008 244.68 166.483L243.893 166.024L244.155 165.171C245.423 164.778 247.063 164.428 249.074 164.122C251.13 163.816 253.075 163.663 254.912 163.663C259.372 163.663 262.739 164.603 265.013 166.483C267.331 168.32 268.489 170.768 268.489 173.829Z" fill="black"/>
<path d="M237.61 188.982C238.047 190.206 238.528 191.19 239.053 191.933C239.578 192.633 240.387 193.398 241.48 194.229L240.89 194.885H229.018L228.624 193.704L229.608 193.442C230.264 193.223 230.723 192.961 230.985 192.655C231.291 192.305 231.444 191.846 231.444 191.277C231.444 190.928 231.204 190.031 230.723 188.588L229.411 184.718H219.244L218.72 186.358C218.064 188.326 217.736 189.813 217.736 190.818C217.736 191.78 217.911 192.655 218.26 193.442L218.72 194.229L218.129 194.885H210.914L210.455 193.704L211.439 193.442C212.488 193.136 213.276 192.72 213.8 192.196C214.325 191.627 214.828 190.643 215.309 189.244L221.999 169.96C222.305 168.867 222.458 168.102 222.458 167.664C222.458 166.702 221.759 166.025 220.359 165.631L219.638 165.434L220.097 164.254H229.018L237.61 188.982ZM228.755 182.882L224.295 169.567L219.9 182.882H228.755Z" fill="black"/>
<path d="M200.083 164.975C198.99 165.806 198.181 166.593 197.656 167.336C197.132 168.036 196.651 168.976 196.213 170.157L187.949 194.885H182.308L176.733 176.454L171.223 194.885H165.516L157.121 170.157C156.683 168.933 156.202 167.992 155.678 167.336C155.197 166.637 154.41 165.85 153.316 164.975L153.841 164.254H165.779L166.172 165.434L165.254 165.697C164.598 165.915 164.117 166.2 163.811 166.549C163.549 166.855 163.418 167.293 163.418 167.861C163.418 168.298 163.571 168.998 163.877 169.96L170.436 189.506L175.486 172.453L174.765 170.157C174.328 168.933 173.847 167.992 173.322 167.336C172.841 166.637 172.054 165.85 170.961 164.975L171.485 164.254H183.423L183.882 165.434L182.898 165.697C182.199 165.872 181.718 166.134 181.455 166.484C181.193 166.79 181.062 167.249 181.062 167.861C181.062 168.298 181.215 168.998 181.521 169.96L187.293 189.572L193.786 170.091C194.093 169.129 194.246 168.408 194.246 167.927C194.246 167.402 194.093 166.987 193.786 166.681C193.524 166.331 193.065 166.068 192.409 165.893L191.228 165.434L191.622 164.254H199.559L200.083 164.975Z" fill="black"/>
<path d="M149.921 188.982C150.358 190.206 150.839 191.19 151.364 191.933C151.888 192.633 152.697 193.398 153.79 194.229L153.2 194.885H141.328L140.935 193.704L141.918 193.442C142.574 193.223 143.033 192.961 143.296 192.655C143.602 192.305 143.755 191.846 143.755 191.277C143.755 190.928 143.514 190.031 143.033 188.588L141.722 184.718H131.555L131.03 186.358C130.374 188.326 130.046 189.813 130.046 190.818C130.046 191.78 130.221 192.655 130.571 193.442L131.03 194.229L130.44 194.885H123.225L122.766 193.704L123.75 193.442C124.799 193.136 125.586 192.72 126.111 192.196C126.636 191.627 127.138 190.643 127.619 189.244L134.31 169.96C134.616 168.867 134.769 168.102 134.769 167.664C134.769 166.702 134.069 166.025 132.67 165.631L131.948 165.434L132.408 164.254H141.328L149.921 188.982ZM141.066 182.882L136.605 169.567L132.211 182.882H141.066Z" fill="black"/>
<path d="M103.547 172.715C103.547 171.141 103.481 169.96 103.35 169.173C103.219 168.342 102.957 167.643 102.563 167.074C102.17 166.506 101.536 165.85 100.661 165.106L101.251 164.254H112.664L113.123 165.303C112.118 165.872 111.396 166.374 110.959 166.812C110.522 167.249 110.215 167.796 110.041 168.452C109.909 169.107 109.844 170.135 109.844 171.534V189.834C109.844 191.234 110.041 192.152 110.434 192.589C110.828 193.027 111.702 193.245 113.058 193.245H115.55C116.818 193.245 117.824 192.83 118.567 191.999C119.311 191.124 120.076 189.485 120.863 187.08L122.175 187.539V195.41L121.519 196C120.951 195.563 120.317 195.257 119.617 195.082C118.917 194.951 117.868 194.885 116.469 194.885H100.333L99.9395 193.704C101.033 193.398 101.82 193.114 102.301 192.852C102.782 192.546 103.11 192.152 103.285 191.671C103.46 191.19 103.547 190.447 103.547 189.441V172.715Z" fill="black"/>
<path d="M65.5665 172.844C65.5665 171.095 65.4353 169.718 65.173 168.712C64.9106 167.706 64.4077 166.701 63.6644 165.695L63.1396 164.973L63.6644 164.252H78.1601C80.5651 164.252 82.1831 163.968 83.0139 163.399L83.801 162.809L84.4569 163.399V171.598L83.1451 172.057C82.358 169.696 81.5709 168.078 80.7838 167.204C80.0404 166.329 78.9691 165.892 77.5698 165.892H74.6182C73.4812 165.892 72.7379 166.11 72.3881 166.548C72.0382 166.941 71.8633 167.816 71.8633 169.171V178.485H76.5859C77.8978 178.485 78.8598 178.354 79.472 178.092C80.1279 177.829 80.6089 177.305 80.915 176.518L81.2429 175.599L82.0956 176.124V183.47L80.6526 183.995L80.3902 182.552C80.2153 181.634 79.7343 181 78.9472 180.65C78.1601 180.3 76.892 180.125 75.1429 180.125H71.8633V190.029C71.8633 191.341 72.0601 192.216 72.4536 192.653C72.8472 193.047 73.7217 193.243 75.0773 193.243H78.2913C79.6031 193.243 80.6307 192.784 81.3741 191.866C82.1612 190.948 82.9046 189.352 83.6042 187.078L84.9816 187.537V195.408L84.2601 195.998C83.648 195.561 82.9483 195.255 82.1612 195.08C81.3741 194.949 80.2809 194.883 78.8816 194.883H62.4181L61.959 193.703C63.0522 193.396 63.8393 193.112 64.3203 192.85C64.8013 192.544 65.1292 192.15 65.3042 191.669C65.4791 191.188 65.5665 190.445 65.5665 189.439V172.844Z" fill="black"/>
<path d="M55.0543 186.62C55.0543 188.151 55.1199 189.31 55.2511 190.097C55.3823 190.884 55.6447 191.562 56.0382 192.13C56.4318 192.699 57.044 193.354 57.8748 194.098L57.3501 194.885H45.8059L45.4124 193.704C46.4181 193.442 47.1396 193.18 47.5769 192.917C48.0579 192.611 48.364 192.218 48.4952 191.737C48.6701 191.212 48.7575 190.447 48.7575 189.441V180.258H37.1478V186.62C37.1478 188.151 37.2134 189.332 37.3446 190.162C37.4758 190.949 37.7163 191.627 38.0661 192.196C38.4597 192.72 39.0719 193.354 39.9027 194.098L39.4435 194.885H27.8994L27.5059 193.704C28.9489 193.311 29.8672 192.873 30.2607 192.392C30.6543 191.868 30.851 190.884 30.851 189.441V172.387C30.851 170.288 30.6761 168.823 30.3263 167.992C30.0202 167.118 29.2331 166.156 27.965 165.106L28.4897 164.254H39.6403L40.0995 165.303C38.8313 166.047 38.0224 166.746 37.6726 167.402C37.3227 168.014 37.1478 169.129 37.1478 170.747V178.421H48.7575V172.387C48.7575 170.288 48.5826 168.823 48.2328 167.992C47.9267 167.118 47.1396 166.156 45.8715 165.106L46.3962 164.254H57.5468L58.0716 165.303C56.8035 166.047 55.9726 166.746 55.5791 167.402C55.2293 168.014 55.0543 169.129 55.0543 170.747V186.62Z" fill="black"/>
<path d="M15.414 189.439C15.414 190.445 15.5015 191.21 15.6764 191.735C15.895 192.216 16.2449 192.587 16.7259 192.85C17.2069 193.112 17.994 193.396 19.0872 193.703L18.628 194.883H7.21508L6.69035 194.227L7.21508 193.44C7.95845 192.434 8.46132 191.429 8.72369 190.423C9.02978 189.373 9.16097 187.996 9.11724 186.291V168.647C9.11724 167.553 9.00792 166.832 8.78928 166.482C8.61437 166.088 8.24268 165.892 7.67422 165.892H6.95271C5.46597 165.892 4.35091 166.351 3.60754 167.269C2.86417 168.144 2.09893 169.74 1.31183 172.057L0 171.598V163.399L0.655917 162.809L1.44302 163.399C2.27384 163.968 3.89177 164.252 6.2968 164.252H18.3001C20.7051 164.252 22.323 163.968 23.1539 163.399L23.9409 162.809L24.6625 163.399V171.598L23.285 172.057C22.4542 169.652 21.6671 168.034 20.9237 167.204C20.2241 166.329 19.1528 165.892 17.7097 165.892H16.8571C16.2886 165.892 15.895 166.088 15.6764 166.482C15.5015 166.832 15.414 167.553 15.414 168.647V189.439Z" fill="black"/>
<defs>
<clipPath id="clip0_2607_3953">
<rect width="153.416" height="156.547" fill="white" transform="translate(71.3711)"/>
</clipPath>
</defs>
</svg>
